<svg width="32" height="42" viewBox="0 0 32 42" fill="none" xmlns="http://www.w3.org/2000/svg">
<path d="M15.9999 6.12903C14.5518 6.12903 13.1362 6.55844 11.9322 7.36295C10.7282 8.16747 9.78971 9.31096 9.23555 10.6488C8.68139 11.9867 8.5364 13.4588 8.81891 14.8791C9.10142 16.2993 9.79874 17.6039 10.8227 18.6279C11.8466 19.6518 13.1512 20.3492 14.5715 20.6317C15.9918 20.9142 17.4639 20.7692 18.8018 20.215C20.1396 19.6609 21.2831 18.7224 22.0876 17.5184C22.8921 16.3144 23.3216 14.8988 23.3216 13.4507C23.3216 11.5089 22.5502 9.64657 21.1771 8.27349C19.804 6.90042 17.9417 6.12903 15.9999 6.12903ZM15.9999 18.2168C15.0572 18.2168 14.1358 17.9373 13.352 17.4136C12.5682 16.8899 11.9573 16.1455 11.5966 15.2746C11.2358 14.4037 11.1415 13.4454 11.3254 12.5209C11.5093 11.5963 11.9632 10.7471 12.6297 10.0805C13.2963 9.41399 14.1455 8.96006 15.0701 8.77616C15.9946 8.59226 16.9529 8.68665 17.8238 9.04738C18.6947 9.40812 19.4391 10.019 19.9628 10.8028C20.4865 11.5866 20.766 12.508 20.766 13.4507C20.7626 14.7125 20.259 15.9215 19.3655 16.8126C18.4721 17.7036 17.2617 18.204 15.9999 18.204V18.2168Z" fill="white"/>
<path d="M16 0.0979004C12.02 0.101225 8.20296 1.67939 5.38267 4.4877C2.56239 7.29601 0.968007 11.1063 0.947754 15.0862C0.947754 21.0535 4.29553 26.0496 6.74886 29.6912L7.19609 30.3557C9.637 33.8934 12.2555 37.3051 15.0416 40.5779L16.0128 41.7151L16.9839 40.5779C19.7696 37.3049 22.3881 33.8931 24.8294 30.3557L25.2766 29.6785C27.7172 26.0368 31.065 21.0535 31.065 15.0862C31.0447 11.104 29.4486 7.29187 26.6255 4.4832C23.8025 1.67452 19.9822 0.0978488 16 0.0979004ZM23.1428 28.209L22.6828 28.8862C20.485 32.1829 17.5716 35.8757 16 37.7029C14.4922 35.8757 11.515 32.1829 9.3172 28.8862L8.86998 28.209C6.60831 24.8357 3.50331 20.2229 3.50331 15.0351C3.50331 13.394 3.82655 11.769 4.45456 10.2529C5.08258 8.73669 6.00307 7.35907 7.1635 6.19864C8.32392 5.03822 9.70154 4.11772 11.2177 3.48971C12.7339 2.86169 14.3589 2.53846 16 2.53846C17.6411 2.53846 19.2661 2.86169 20.7822 3.48971C22.2984 4.11772 23.676 5.03822 24.8365 6.19864C25.9969 7.35907 26.9174 8.73669 27.5454 10.2529C28.1734 11.769 28.4966 13.394 28.4966 15.0351C28.4966 20.274 25.4044 24.8868 23.1428 28.209Z" fill="white"/>
</svg>
