<svg width="42" height="31" viewBox="0 0 42 31" fill="none" xmlns="http://www.w3.org/2000/svg">
<path d="M38.889 0.208984H3.11122C2.43344 0.208984 1.78343 0.478229 1.30417 0.957489C0.824909 1.43675 0.555664 2.08676 0.555664 2.76454V28.3201C0.555664 28.9979 0.824909 29.6479 1.30417 30.1271C1.78343 30.6064 2.43344 30.8756 3.11122 30.8756H38.889C39.5668 30.8756 40.2168 30.6064 40.696 30.1271C41.1753 29.6479 41.4445 28.9979 41.4445 28.3201V2.76454C41.4445 2.08676 41.1753 1.43675 40.696 0.957489C40.2168 0.478229 39.5668 0.208984 38.889 0.208984ZM36.9212 28.3201H5.23233L14.1768 19.069L12.3368 17.2929L3.11122 26.8379V4.70676L18.994 20.5129C19.4728 20.9888 20.1205 21.256 20.7957 21.256C21.4708 21.256 22.1185 20.9888 22.5973 20.5129L38.889 4.31065V26.6718L29.4846 17.2673L27.6829 19.069L36.9212 28.3201ZM4.78511 2.76454H36.819L20.7957 18.6984L4.78511 2.76454Z" fill="white"/>
</svg>
