<svg width="45" height="44" viewBox="0 0 45 44" fill="none" xmlns="http://www.w3.org/2000/svg">
<path d="M34.4327 43.8268C34.003 43.8256 33.5746 43.7785 33.1549 43.6862C25.1645 42.0333 17.8032 38.1578 11.9183 32.5057C6.15889 26.8412 2.16446 19.629 0.418254 11.7418C0.212354 10.7588 0.26289 9.73938 0.564999 8.78158C0.867109 7.82379 1.41062 6.95985 2.14325 6.2729L7.25437 1.35346C7.51542 1.10658 7.82561 0.917519 8.16468 0.798625C8.50374 0.679731 8.86407 0.633674 9.22214 0.663459C9.59342 0.702192 9.9517 0.821793 10.2718 1.01385C10.5919 1.20591 10.866 1.46576 11.0749 1.77513L17.4638 11.2179C17.7034 11.5843 17.819 12.0179 17.7937 12.455C17.7684 12.892 17.6035 13.3094 17.3233 13.6457L14.116 17.479C15.3934 20.306 17.2023 22.8611 19.4444 25.0051C21.6719 27.2269 24.3048 29.001 27.2005 30.2312L31.1744 27.0751C31.5081 26.8113 31.9143 26.6554 32.3388 26.628C32.7633 26.6006 33.1861 26.7031 33.551 26.9218L43.1983 33.1573C43.5293 33.355 43.8114 33.625 44.0233 33.9472C44.2351 34.2693 44.3714 34.6352 44.4218 35.0175C44.4722 35.3998 44.4354 35.7885 44.3143 36.1546C44.1931 36.5206 43.9907 36.8545 43.7221 37.1312L38.7388 42.0635C38.1727 42.6267 37.5009 43.0725 36.7619 43.3752C36.0228 43.6778 35.2313 43.8313 34.4327 43.8268ZM9.0177 3.19346L3.90659 8.1129C3.49444 8.49694 3.18935 8.98164 3.02132 9.51933C2.8533 10.057 2.82811 10.6292 2.94825 11.1796C4.57195 18.5806 8.30434 25.3531 13.6944 30.6785C19.2325 35.996 26.1599 39.6413 33.6788 41.1946C34.2479 41.3136 34.8377 41.2895 35.3952 41.1244C35.9527 40.9594 36.4606 40.6586 36.8733 40.249L41.8566 35.3168L32.5416 29.2985L28.2738 32.6973C28.1104 32.8267 27.9179 32.9141 27.713 32.9519C27.5081 32.9898 27.2971 32.977 27.0983 32.9146C23.5546 31.6089 20.3432 29.5364 17.6938 26.8451C14.9534 24.286 12.8263 21.1411 11.471 17.6451C11.4137 17.4335 11.4118 17.2106 11.4655 16.998C11.5192 16.7855 11.6267 16.5903 11.7777 16.4312L15.2277 12.304L9.0177 3.19346Z" fill="white"/>
</svg>
